<?xml version="1.0" standalone="no"?>
<!DOCTYPE svg PUBLIC "-//W3C//DTD SVG 20010904//EN"
 "http://www.w3.org/TR/2001/REC-SVG-20010904/DTD/svg10.dtd">
<svg version="1.0" xmlns="http://www.w3.org/2000/svg"
 width="260.000000pt" height="260.000000pt" viewBox="0 0 260.000000 260.000000"
 preserveAspectRatio="xMidYMid meet">
<metadata>
Created by potrace 1.11, written by Peter Selinger 2001-2013
</metadata>
<g transform="translate(0.000000,260.000000) scale(0.100000,-0.100000)"
fill="#000000" stroke="none">
<path d="M947 1864 c-3 -3 -38 -7 -79 -9 -40 -2 -73 -4 -73 -5 0 -3 -39 -12
-57 -13 -10 -1 -18 -5 -18 -9 0 -4 -7 -8 -16 -8 -17 0 -90 -38 -112 -58 -7 -7
-18 -10 -23 -6 -5 3 -8 1 -7 -4 3 -11 -40 -52 -54 -52 -5 0 -6 -5 -3 -10 3 -6
-1 -13 -9 -16 -9 -3 -16 -12 -16 -20 0 -8 -4 -14 -9 -14 -5 0 -11 -8 -14 -17
-3 -10 -20 -42 -36 -71 -17 -29 -30 -53 -30 -55 2 -12 -15 -35 -24 -30 -5 3
-7 1 -4 -5 10 -15 -3 -43 -16 -35 -5 3 -7 1 -4 -4 7 -11 -49 -134 -65 -144 -5
-3 -10 -10 -10 -15 0 -12 -86 -190 -113 -234 -12 -19 -23 -39 -25 -45 -10 -36
-65 -133 -73 -128 -6 3 -7 1 -3 -5 4 -6 0 -25 -8 -41 -15 -29 -15 -29 17 -41
38 -15 51 -18 97 -24 37 -5 112 -9 120 -6 3 0 25 3 50 6 79 8 85 9 91 17 3 5
13 9 22 11 21 3 110 48 119 61 5 6 8 6 8 0 0 -5 7 1 16 13 9 14 22 21 31 18 8
-3 12 -2 9 2 -2 4 13 28 35 52 21 25 41 53 45 63 3 9 10 14 16 11 7 -4 8 -2 4
4 -6 10 209 451 227 463 5 3 8 9 7 13 -3 15 115 234 124 229 5 -3 6 -1 2 5 -8
13 13 62 27 62 6 0 7 3 4 6 -3 4 -2 15 4 25 5 11 6 19 2 20 -26 2 -47 9 -52
16 -8 10 -22 13 -76 15 -24 1 -41 6 -39 10 6 9 0 11 -9 2z"/>
<path d="M1713 1862 c-6 -4 -43 -7 -81 -7 -39 0 -68 -3 -66 -6 3 -6 -65 -23
-75 -19 -2 1 -7 -2 -10 -7 -6 -9 -66 -37 -66 -31 0 1 -14 -9 -30 -25 -17 -15
-36 -25 -45 -22 -8 4 -11 3 -7 -1 3 -4 -13 -28 -36 -54 -23 -26 -58 -78 -77
-116 -19 -38 -38 -71 -41 -74 -4 -3 -9 -15 -13 -28 -4 -12 -12 -19 -18 -16 -6
4 -8 2 -4 -4 9 -14 -14 -63 -27 -55 -6 3 -7 1 -3 -5 6 -10 -20 -72 -67 -157
-6 -11 -32 -62 -57 -113 -25 -51 -49 -90 -52 -87 -3 4 -5 0 -4 -7 1 -13 -83
-189 -95 -198 -4 -3 -9 -16 -10 -29 -4 -22 2 -26 58 -41 69 -20 208 -24 268
-8 22 6 45 11 50 13 6 1 26 8 45 16 19 7 38 12 43 11 4 -1 7 3 7 8 0 6 5 10
11 10 21 0 148 109 149 128 0 6 7 12 15 12 8 0 14 3 13 8 -3 12 13 52 21 52 4
0 8 6 8 13 0 17 109 228 114 222 3 -2 5 4 6 15 2 21 62 130 64 115 1 -5 1 -13
0 -17 0 -5 3 -8 7 -8 5 0 17 -19 27 -42 11 -24 27 -55 37 -70 10 -14 18 -33
18 -41 0 -9 3 -17 8 -19 4 -1 14 -17 23 -35 13 -23 14 -34 5 -43 -8 -8 -7 -10
7 -5 13 5 17 2 17 -13 0 -11 3 -22 8 -24 4 -1 18 -25 32 -52 14 -28 50 -76 81
-108 30 -32 53 -61 50 -65 -4 -3 -1 -3 5 0 5 3 23 -3 40 -14 28 -19 67 -39 89
-45 6 -1 38 -10 73 -19 35 -9 70 -14 78 -11 8 3 14 1 14 -4 0 -5 6 -7 13 -5
12 4 111 15 172 18 17 1 34 8 38 14 4 7 14 13 21 13 12 0 -93 220 -193 405
-11 22 -21 45 -21 52 0 7 -4 13 -10 13 -5 0 -10 9 -10 20 0 11 -4 20 -8 20 -5
0 -15 18 -22 40 -7 22 -17 40 -22 40 -4 0 -8 9 -8 19 0 11 -4 21 -8 23 -14 5
-62 110 -55 121 3 6 1 7 -4 4 -10 -6 -37 43 -33 59 1 4 -2 10 -7 13 -20 15
-61 79 -55 86 4 5 2 5 -4 2 -6 -3 -20 4 -31 16 -39 43 -122 97 -149 97 -8 0
-14 5 -14 12 0 6 -3 9 -6 5 -3 -3 -18 -1 -33 5 -24 9 -46 14 -106 22 -12 1
-25 5 -31 8 -5 4 -15 4 -21 0z"/>
</g>
</svg>
